<svg xmlns="http://www.w3.org/2000/svg" viewBox="0 0 754.51 792.72"><path d="M606.54,552.69c-3.74.36-7.5.68-11.25,1L827.81,378.92l-26.7-35.51L549.53,532.53c-2.21-1.6-4.52-3.1-6.92-4.54L707.69,206.1l-39.53-20.27L501.75,510.33V121.21H457.33V496.59L290.36,171l-39.53,20.27L421.91,524.89,420,526,157.41,328.59l-26.7,35.51L385.2,555.39q-16.36-1.15-32.67-2.71L102.28,526.39v56.54l377.26,15.89,377.25-15.89V526.39L606.54,552.68Z" transform="translate(-102.28 -121.21)" style="fill:#e10032"/><path d="M395.28,662c-102.73,29.57-208.34,68.88-209.39,69.27l15.53,41.62c1-.39,105.09-39.11,206.14-68.21,94.1-27.09,196.81,14.39,197.81,14.8l.65.26c13.29,5,130.51,49.22,155,54.12l8.72-43.57c-15.73-3.15-98.84-33.51-147.75-52-8.42-3.44-119.37-47.21-226.74-16.31Z" transform="translate(-102.28 -121.21)" style="fill:#e10032"/><path d="M441.37,763.55c-42.58,12.26-85,28-86.77,28.71l15.52,41.62c.42-.15,42.64-15.86,83.53-27.64,34-9.78,72.11,5.45,72.43,5.58l.65.26c16.29,6.17,55.32,20.71,65.6,22.77l8.78-43.55c-5.51-1.22-34.56-11.67-58.44-20.69-5.26-2.12-53.87-20.72-101.31-7.06Z" transform="translate(-102.28 -121.21)" style="fill:#e10032"/><path d="M479.54,850.4a31.77,31.77,0,1,0,31.76,31.76A31.78,31.78,0,0,0,479.54,850.4Z" transform="translate(-102.28 -121.21)" style="fill:#e10032"/></svg>